<svg id="Layer_1" data-name="Layer 1" xmlns="http://www.w3.org/2000/svg" viewBox="0 0 150 150"><defs><style>.cls-1{fill:#333;}</style></defs><title>ICON DUNG CU THE THAO</title><path class="cls-1" d="M72,78.81a1.88,1.88,0,0,1-.81-.18l-60-28.22a1.9,1.9,0,0,1,.62-3.61L65.8,41.19a2,2,0,0,1,.73.07l9,2.76a1.29,1.29,0,0,1-.76,2.47l-8.81-2.71L14.42,49.12,72,76.19,135.22,64.3,101.44,54.1a1.3,1.3,0,0,1,.75-2.48l36.45,11a1.9,1.9,0,0,1-.19,3.69L72.3,78.78A2.07,2.07,0,0,1,72,78.81Zm.29-2.52ZM137.9,65.11Z"/><polygon class="cls-1" points="28.14 61.63 28.14 52.97 101.84 43.11 101.84 52.16 98.95 52.16 98.95 46.12 31.03 55.2 31.03 61.63 28.14 61.63"/><path class="cls-1" d="M107.28,55.87a1.49,1.49,0,0,1-.36,0l-17.24-5a1.29,1.29,0,1,1,.72-2.48l17.23,5a1.29,1.29,0,0,1-.35,2.54Z"/><path class="cls-1" d="M72.85,108h-5l-.27-.93c-.08-.25-6.72-22.15-17.89-32.73h0c-10.15,1.92-12.09,3.78-13.51,5.14a7.46,7.46,0,0,1-3.63,2.16c-2.68.73-4.49.7-5.54-.1A2.07,2.07,0,0,1,26.18,80v-.12l0-.11c.08-.39,1.86-9.57,8.26-12.57,3.39-1.58,7.34-1.14,11.75,1.33,13.63,7.61,22,31.78,23.6,36.91h2.26C73.8,102.28,81.25,90.24,93.54,89c14.1-1.41,21.25,3.54,23.64,5.7l2.3-.23c-1.07-3.59-4.23-13-9.31-18.37a1.29,1.29,0,0,1,1.89-1.77c6.8,7.25,10.2,20.4,10.34,21l.37,1.45-6.54.66L115.8,97c-1.62-1.61-8-6.79-22-5.38C81.39,92.83,74.08,107.13,74,107.27l-.35.72Zm-44-28.43a8.25,8.25,0,0,0,3-.41,5,5,0,0,0,2.52-1.54C36,76.13,38,74.14,47.2,72.2A20.41,20.41,0,0,0,45,70.75c-3.64-2-6.8-2.46-9.39-1.24C31.21,71.54,29.39,77.57,28.89,79.56Z"/><rect class="cls-1" x="73.8" y="22.95" width="2.59" height="69.67" transform="translate(-6.4 106.13) rotate(-68.25)"/><path class="cls-1" d="M35.88,69l-.28,0a1.29,1.29,0,0,1-1-1.54c.59-2.67-1.86-6.25-2.86-7.4a1.29,1.29,0,1,1,2-1.69c.18.21,4.42,5.18,3.43,9.65A1.3,1.3,0,0,1,35.88,69Z"/><path class="cls-1" d="M66.92,86.21a1.28,1.28,0,0,1-1-2L71,76.85a1.29,1.29,0,0,1,2.11,1.49L68,85.67A1.3,1.3,0,0,1,66.92,86.21Z"/><path class="cls-1" d="M107,78.89a1.31,1.31,0,0,1-.75-.24,1.3,1.3,0,0,1-.31-1.8l5.18-7.33a1.28,1.28,0,0,1,1.8-.31,1.29,1.29,0,0,1,.31,1.8l-5.17,7.33A1.32,1.32,0,0,1,107,78.89Z"/><rect class="cls-1" x="34.17" y="54.11" width="0.14" height="5.68"/><rect class="cls-1" x="37.57" y="53.68" width="0.14" height="5.68"/><rect class="cls-1" x="40.98" y="53.26" width="0.14" height="5.68"/><rect class="cls-1" x="44.39" y="52.83" width="0.14" height="5.68"/><rect class="cls-1" x="47.8" y="52.4" width="0.14" height="5.68"/><rect class="cls-1" x="51.21" y="51.98" width="0.14" height="5.68"/><rect class="cls-1" x="54.62" y="51.55" width="0.14" height="5.68"/><rect class="cls-1" x="58.03" y="51.13" width="0.14" height="5.68"/><rect class="cls-1" x="61.44" y="50.7" width="0.14" height="5.68"/><rect class="cls-1" x="64.84" y="50.27" width="0.14" height="5.68"/><rect class="cls-1" x="68.25" y="49.85" width="0.14" height="5.68"/><rect class="cls-1" x="71.66" y="49.42" width="0.14" height="5.68"/><rect class="cls-1" x="75.07" y="49" width="0.14" height="5.68"/><rect class="cls-1" x="78.48" y="48.57" width="0.14" height="5.68"/><rect class="cls-1" x="81.89" y="48.14" width="0.14" height="5.68"/><rect class="cls-1" x="85.3" y="47.72" width="0.14" height="5.68"/><rect class="cls-1" x="88.71" y="47.29" width="0.14" height="5.68"/><rect class="cls-1" x="92.11" y="46.87" width="0.14" height="5.68"/><rect class="cls-1" x="95.52" y="46.44" width="0.14" height="5.68"/><rect class="cls-1" x="98.93" y="46.01" width="0.14" height="5.68"/></svg>