<svg id="Layer_1" data-name="Layer 1" xmlns="http://www.w3.org/2000/svg" viewBox="0 0 150 150"><defs><style>.cls-1{fill:#333;}</style></defs><title>ICON DUNG CU THE THAO</title><path class="cls-1" d="M38.66,78.79l-.77-.9.11-.1L68.43,51.51l.78.9-.12.1Zm-.34-.87.38.44,30.07-26L68.4,52Z"/><path class="cls-1" d="M33.33,75.64l-.77-.9.11-.1L65.78,46.05l.78.9-.12.1ZM33,74.77l.38.44L66.12,46.92l-.37-.44Z"/><path class="cls-1" d="M29.08,71.57l-.78-.9.12-.1L63.34,40.4l.78.9-.12.1Zm-.34-.87.37.43L63.68,41.27l-.37-.43Z"/><path class="cls-1" d="M25.24,67.13l-.78-.91.12-.1L59.5,36l.78.9-.12.1Zm-.34-.87.37.43L59.85,36.83l-.38-.43Z"/><path class="cls-1" d="M21.83,62.32l-.78-.9.12-.1,34.5-29.8.77.9-.11.1Zm-.34-.87.37.43L56,32.39,55.64,32Z"/><path class="cls-1" d="M19.49,56.59l-.78-.9.12-.1L49.25,29.31l.78.9-.12.1Zm-.35-.87.38.44,30.07-26-.37-.44Z"/><path class="cls-1" d="M17,51l-.78-.9.12-.1L43.86,26.21l.78.9-.12.1Zm-.34-.86.37.43L44.2,27.08l-.37-.43Z"/><path class="cls-1" d="M41.21,79.88l-.1-.11-25-29L17,50l25.13,29.1ZM16.52,50.82,41.25,79.45l.43-.37L17,50.45Z"/><path class="cls-1" d="M49.46,82.26l-.1-.12L16.09,43.61l.9-.77.1.11L50.36,81.48ZM16.52,43.65l33,38.17.43-.37L17,43.27Z"/><path class="cls-1" d="M53.69,80l-.1-.12-35.39-41,.9-.78.1.12,35.39,41Zm-35-41.06L53.72,79.53l.43-.37L19.07,38.54Z"/><path class="cls-1" d="M59.25,79.23l-.1-.12-38.84-45,.9-.78.11.12,38.83,45ZM20.75,34.18,59.28,78.79l.44-.37L21.18,33.81Z"/><path class="cls-1" d="M62.81,76.16,62.7,76l-38.83-45,.9-.78.1.12,38.83,45Zm-38.51-45L62.84,75.72l.43-.37L24.74,30.74Z"/><path class="cls-1" d="M66.36,73.09l-.1-.12L27.42,28l.9-.78.1.12,38.84,45ZM27.86,28,66.39,72.66l.43-.38L28.29,27.67Z"/><path class="cls-1" d="M68.47,68.36l-.1-.12-36-41.63.9-.78.1.12,36,41.63ZM32.85,26.64,68.5,67.92l.44-.37L33.28,26.27Z"/><path class="cls-1" d="M69,61.74l-.1-.12L37.4,25.2l.9-.77.1.11L69.86,61ZM37.84,25.24,69,61.3l.43-.37L38.27,24.86Z"/><path class="cls-1" d="M69.63,55.34,44.5,26.24l.9-.78,25.13,29.1ZM44.93,26.27,69.66,54.9l.44-.37L45.37,25.9Z"/><path class="cls-1" d="M99.08,126.5a1.69,1.69,0,0,1-.38,0,2.41,2.41,0,0,1-1.28-.78L95.14,123a1.94,1.94,0,0,1-.12-2.66L78.17,100.87a1.94,1.94,0,0,1-2.61-.5l-2.28-2.64A1.93,1.93,0,0,1,73.2,95l7.66-6.61a1.58,1.58,0,0,1,1.38-.32,2.37,2.37,0,0,1,1.28.78l2.28,2.64a2.39,2.39,0,0,1,.59,1.39,1.59,1.59,0,0,1-.47,1.27l16.85,19.51a2,2,0,0,1,2.62.5l2.27,2.64a2.39,2.39,0,0,1,.59,1.39,1.58,1.58,0,0,1-.51,1.31l-7.66,6.61A1.48,1.48,0,0,1,99.08,126.5ZM78.27,99.57l18,20.9-.65.57c-.32.28-.25.92.17,1.4l2.28,2.63a1.48,1.48,0,0,0,.77.49.68.68,0,0,0,.59-.12l7.65-6.61a.68.68,0,0,0,.2-.56,1.47,1.47,0,0,0-.37-.84l-2.27-2.63c-.42-.48-1-.65-1.36-.38l-.66.57-18-20.9.65-.57a.68.68,0,0,0,.2-.56,1.47,1.47,0,0,0-.37-.84l-2.28-2.63a1.44,1.44,0,0,0-.77-.49.68.68,0,0,0-.58.11l-7.66,6.62c-.32.28-.25.92.17,1.4l2.28,2.63c.41.48,1,.65,1.35.37Z"/><path class="cls-1" d="M88.43,112.28l-1.7-2L94,104l1.7,2Zm-1.27-1.94,1.3,1.5L95.28,106,94,104.45Z"/><path class="cls-1" d="M91.64,116l-1.7-2,7.28-6.28,1.7,2Zm-1.27-1.94,1.3,1.5,6.82-5.89-1.3-1.5Z"/><path class="cls-1" d="M49.74,126.82a1.28,1.28,0,0,1-1-.32l-7.94-7a1.25,1.25,0,0,1-.43-.9,1.8,1.8,0,0,1,.23-.85l0,0,0,0L61.54,94v-.27h.09v-.07l.46,0,3.59-1.56a1.3,1.3,0,0,1,1.35.29l1.73,1.51L85,75.46c-4.59-4.6-6.83-11.22-6.31-18.69a36.85,36.85,0,0,1,9.43-21.54c6.52-7.47,15.28-12.07,24-12.65a22.5,22.5,0,0,1,16.5,5.28h0c5.16,4.58,7.74,11.4,7.28,19.21A37,37,0,0,1,126.43,69c-6.52,7.46-15.25,12.07-24,12.64A22.4,22.4,0,0,1,87,77.18L70.76,95.59l1.73,1.51a1.38,1.38,0,0,1,.39,1.4l-1.08,3.71a.53.53,0,0,1-.13.32.31.31,0,0,1,0,.1v.05l-.12.13L50.72,126.4A1.3,1.3,0,0,1,49.74,126.82Zm-8.3-8.61a.92.92,0,0,0-.11.39.39.39,0,0,0,.14.23l8,7s.22,0,.31,0a.4.4,0,0,0,.32-.13l20.68-23.48,0-.08v-.43H71l1-3.55a.48.48,0,0,0-.15-.46L69.3,95.55v0l-2.91-2.53c-.1-.1-.16-.14-.45-.07l-3.53,1.54-.1.07-.13.1ZM69.3,95.12h.64l0,0L86.87,75.9l.35.28a21.38,21.38,0,0,0,15.2,4.51c8.45-.56,17-5,23.31-12.33A36,36,0,0,0,135,47c.45-7.51-2-14.07-7-18.46a21.55,21.55,0,0,0-15.83-5c-8.51.55-17,5-23.41,12.33a36,36,0,0,0-9.2,21C79.1,64.2,81.35,70.68,86,75.1l.32.31L69.35,94.62l0,0ZM49.69,125l-7.34-6.52,20.16-23L70,101.91Zm-6-6.6,6,5.29,19-21.66L62.6,96.79Zm6.83,1a3,3,0,0,1-1.86-.65,2.62,2.62,0,0,1-.26-3.61l9-10.17A2.41,2.41,0,0,1,59.1,104a2.57,2.57,0,0,1,1.93.67,2.63,2.63,0,0,1,.24,3.59l-9.06,10.19a2.2,2.2,0,0,1-1.73.89ZM59.3,104.9h-.12a1.5,1.5,0,0,0-1.06.58h0l-9,10.17a1.67,1.67,0,0,0,.14,2.3,2,2,0,0,0,1.27.44h0a1.29,1.29,0,0,0,1-.57l9.06-10.19a1.68,1.68,0,0,0-1.26-2.75Zm11-3.68-7-6.22,2.77-1.25,5.06,4.45Zm-5.32-6,4.82,4.29.28-1-4.18-3.68Zm35.79-15.34a20.6,20.6,0,0,1-13.67-4.86,20.39,20.39,0,0,1-6.73-14.44c-.54-8.28,2.76-17.12,9-24.28s14.62-11.52,22.85-12c6-.39,11.29,1.28,15.21,4.81,4.8,4.14,7.19,10.47,6.72,17.82-.36,7.19-3.54,14.61-9,20.89-6.4,7.16-14.72,11.53-22.85,12C101.84,79.89,101.29,79.91,100.76,79.91ZM114,25.21c-.54,0-1.08,0-1.63.05-8,.46-16.08,4.72-22.21,11.69s-9.36,15.57-8.83,23.59a19.53,19.53,0,0,0,6.41,13.81,19.74,19.74,0,0,0,14.63,4.58c7.89-.45,16-4.71,22.21-11.68,5.28-6.12,8.39-13.34,8.74-20.32h0c.45-7.06-1.83-13.12-6.41-17.07A18.82,18.82,0,0,0,114,25.21ZM101.5,78.38a19,19,0,0,1-19.57-17c-.09-1.14-.19-2.59-.19-3.85a33.43,33.43,0,0,1,8.51-20.45c5.82-6.68,13.61-10.78,21.36-11.25a19.71,19.71,0,0,1,14.66,4.72,19.43,19.43,0,0,1,6.34,12.28v0c.09,1.1.19,2.86.19,4.1a31.69,31.69,0,0,1-4.3,14.55l-.14.23h-.09a31.41,31.41,0,0,1-3.89,5.39C118.56,73.7,110.78,77.81,103,78.38H101.5Zm11.69-51.69c-.5,0-1,0-1.52,0-7.51.46-15.07,4.45-20.73,10.94a32.52,32.52,0,0,0-8.28,19.86c0,1.21.1,2.63.19,3.73A18.11,18.11,0,0,0,101.5,77.46H103c7.5-.56,15.06-4.54,20.72-10.94A30.88,30.88,0,0,0,127.61,61l.14-.23h.09a30.63,30.63,0,0,0,4-13.88c0-1.18-.09-2.94-.18-4a18.16,18.16,0,0,0-18.51-16.25ZM101,76.62a17.48,17.48,0,0,1-10.89-3.69l-.38-.3,4.31-5,8.56,7.45-1.38,1.51H101ZM91.11,72.5a16.36,16.36,0,0,0,9.74,3.2l.47-.52L94.17,69Zm14.06,3.88-1.44-1.29L112,65.71l5.86,5.11-.46.34a28.29,28.29,0,0,1-12,5.18ZM105,75l.42.38a27.35,27.35,0,0,0,10.93-4.63L112.08,67Zm-1.9-.41-8.46-7.54,8.27-9.38,8.46,7.44ZM96,67l7.07,6.31,7-8.08L103,59Zm-6.81,5.15-.35-.34a17.74,17.74,0,0,1-5.13-10.42l0-.22L85,59.64l8.45,7.53ZM84.63,61.45a16.88,16.88,0,0,0,4.49,9.33l3.06-3.53L85.1,60.94Zm33.86,8.83-5.9-5.17,8.27-9.48,5.89,5.27-.18.32A27.9,27.9,0,0,1,123.1,66a28.6,28.6,0,0,1-4.31,4ZM113.89,65l4.64,4.06a28.56,28.56,0,0,0,3.88-3.69h0a28.3,28.3,0,0,0,3.17-4.31L120.94,57ZM94.07,66.57,85.52,59l8.27-9.38,8.55,7.44ZM86.83,59,94,65.26,101,57.18,93.88,51ZM112,64.52l-8.55-7.44,8.27-9.47,8.55,7.53ZM104.74,57l7.16,6.23,7-8-7.16-6.31Zm22.48,3.26L121.36,55l8.25-9.36,1.54,1.26v.23a29.2,29.2,0,0,1-3.64,12.58ZM122.66,55l4.3,3.82a28.4,28.4,0,0,0,3.25-11.43l-.49-.4ZM84.92,58.54l-1.43-1.29V57a29.27,29.27,0,0,1,3.65-12.57l.28-.52,5.77,5.22Zm-.49-1.68.41.37,7-8-4.21-3.82A28.09,28.09,0,0,0,84.43,56.86Zm18.41-.37-8.46-7.44,8.27-9.38,8.46,7.44ZM95.69,49l7.06,6.22,7-8L102.73,41Zm25.06,5.57L112.3,47l8.27-9.38L129,45.16Zm-7.15-7.61,7.07,6.3,7-8-7.07-6.31ZM93.78,48.56l-6-5.27L88,43a29.08,29.08,0,0,1,3.56-4.79,34.29,34.29,0,0,1,4.21-4.11l.3-.25,6,5.27ZM89,43.11l4.72,4.14,7-8.08L96,35a34.47,34.47,0,0,0-3.8,3.77h0A27.34,27.34,0,0,0,89,43.11Zm22.72,3.4-8.55-7.44,8.27-9.47L120,37.13ZM104.45,39l7.16,6.23,7-8L111.5,30.9Zm25.18,5.59L121.06,37l4.42-5,.35.35a18.44,18.44,0,0,1,5,10.41l0,.2ZM122.37,37l7.15,6.29.39-.49a17.52,17.52,0,0,0-4.4-9.34Zm-19.82,1.53-5.87-5.11.47-.34a28.16,28.16,0,0,1,12-5.17l.21,0,1.44,1.28Zm-4.38-5,4.29,3.74,7.06-8-.42-.37A27.12,27.12,0,0,0,98.17,33.44Zm22.29,3.09L112,29l1.25-1.54h.23a18.38,18.38,0,0,1,11,3.78l.39.3Zm-7.16-7.62,7.09,6.31,3.14-3.53a17.46,17.46,0,0,0-9.83-3.28Z"/><path class="cls-1" d="M23.13,29.31C2,47.53,26,79.34,48.17,81.74,51.39,82.09,65.93,85.26,74,95l6.71-5.8C72.57,80,71.16,65.48,71.3,61.72c.79-22.3-27-50.7-48.17-32.41ZM74,85.12a2.06,2.06,0,0,1-3.08,2.66,36.16,36.16,0,0,0-11.13-6,1,1,0,0,1-.08-1.85,20.44,20.44,0,0,0,8.14-7,1,1,0,0,1,1.84.35A38.77,38.77,0,0,0,74,85.12Zm-5.67-25.6c.11,6.14-2.09,11.46-6.18,15s-9.67,4.94-15.73,3.94C33.81,76.37,18.35,61.08,18.1,46.93c-.1-5.9,2.3-11,7.13-15.19s10.24-5.82,16-4.86c13.91,2.29,26.87,19.78,27.09,32.64Z"/><path class="cls-1" d="M73.92,95.63l-.3-.36c-7.79-9.4-22.09-12.7-25.5-13.07-13.51-1.46-28-13.9-32.33-27.73-3.08-9.87-.58-18.93,7-25.51S39.72,21.2,49,25.64c13,6.25,23.26,22.44,22.78,36.1-.12,3.38,1.1,17.92,9.28,27.13l.31.35Zm-50.49-66c-7.32,6.32-9.73,15-6.76,24.53C20.88,67.71,35,79.86,48.22,81.28c4.22.46,17.9,3.83,25.81,13l6-5.19c-8.1-9.46-9.33-24-9.21-27.43.48-13.31-9.51-29.12-22.25-35.23-8.9-4.26-17.84-3.13-25.15,3.19ZM72.26,88.71a2.56,2.56,0,0,1-1.61-.57,35.85,35.85,0,0,0-11-5.92,1.41,1.41,0,0,1-1-1.3,1.45,1.45,0,0,1,.84-1.4,20.09,20.09,0,0,0,8-6.88A1.46,1.46,0,0,1,69,72a1.43,1.43,0,0,1,1.15,1.14,38.16,38.16,0,0,0,4.26,11.75h0a2.54,2.54,0,0,1-.51,3.21A2.5,2.5,0,0,1,72.26,88.71ZM68.72,72.89a.53.53,0,0,0-.46.26,21,21,0,0,1-8.33,7.2.56.56,0,0,0-.32.53.5.5,0,0,0,.35.47,36.76,36.76,0,0,1,11.27,6.07,1.6,1.6,0,0,0,2.4-2.06,38.75,38.75,0,0,1-4.37-12,.56.56,0,0,0-.43-.43ZM50.19,79.22a22.93,22.93,0,0,1-3.83-.32c-6.24-1-13.37-5.27-19.07-11.37-6-6.43-9.54-13.94-9.65-20.6-.11-6,2.34-11.26,7.29-15.54s10.48-5.95,16.41-5C47.89,27.5,54.8,32.07,60.3,39c5.22,6.53,8.41,14.22,8.52,20.56h0c.11,6.28-2.15,11.73-6.34,15.35A18.49,18.49,0,0,1,50.19,79.22ZM38.1,27.07a19,19,0,0,0-12.57,5c-4.72,4.09-7.07,9.07-7,14.83.11,6.43,3.54,13.71,9.41,20C33.53,72.85,40.47,77,46.51,78s11.37-.38,15.36-3.83,6.13-8.64,6-14.63h0c-.1-6.15-3.21-13.62-8.31-20-5.36-6.7-12.06-11.14-18.39-12.19A19.33,19.33,0,0,0,38.1,27.07Z"/></svg>