<svg id="Layer_1" data-name="Layer 1" xmlns="http://www.w3.org/2000/svg" viewBox="0 0 150 150"><defs><style>.cls-1{fill:#333;}</style></defs><title>ICON DUNG CU THE THAO</title><path class="cls-1" d="M73,129.44l-9.86,0c-3.13,0-4.15-.74-5.18-3.73L48.85,99.4c-.42-1.23-.85-2.46-1.28-3.69-1.12-3.21-2.27-6.52-3.37-9.8-1.2-3.57-.55-6.3,1.83-7.66a10.61,10.61,0,0,1,5-1.31c6.94-.08,14-.07,20.82-.06H86.09c5.75,0,11.7,0,17.55,0,5.45,0,7.78,2.08,8.26,7.49,0,.4,0,.8.07,1.18l0,.62.43,7q.46,7.8.92,15.58c.07,1.12.13,2.23.2,3.35.23,3.87.47,7.87.64,11.81.14,3.34-1.52,5.16-4.93,5.43-.6.05-1.19.05-1.76.05H73ZM64.94,78.2c-4.6,0-9.25,0-13.85.07a9.56,9.56,0,0,0-4.4,1.12c-1.83,1-2.24,3.1-1.24,6.1,1.1,3.27,2.25,6.58,3.37,9.78L50.11,99q4.55,13.14,9.11,26.28c.85,2.47,1.37,2.84,3.94,2.85H107.5c.57,0,1.11,0,1.65,0,2.68-.21,3.83-1.46,3.72-4.06-.17-3.93-.41-7.92-.64-11.78-.07-1.12-.14-2.23-.2-3.35l-.93-15.58-.42-7,0-.63c0-.38,0-.76-.07-1.14-.42-4.68-2.15-6.27-6.87-6.27h-.07c-5.85,0-11.8,0-17.55,0H64.94Z"/><path class="cls-1" d="M42.35,83.75l-.89-1.41c-.14-.23-.26-.42-.38-.59-.21-.33-.38-.59-.54-.87L29.47,61.7l-5.11-8.84q-6.64-11.52-13.29-23c-2-3.46-1.17-6.6,2.25-8.61l2.95-1.69c7.49-4.2,15.73-1.94,20,5.51q9.6,16.59,19.18,33.19c.2.35.38.7.57,1.07l.28.55.35.67-.71.26-.3.11a3.8,3.8,0,0,1-.54.18c-4.89,1.19-7.43,4.3-7.56,9.23,0,.66,0,1.33,0,2,0,.8,0,1.64,0,2.46,0,.25-.1,1.51-.86,1.91a7.39,7.39,0,0,0-4,5.47ZM24,18.72a14.4,14.4,0,0,0-7,2c-1.05.59-2,1.14-2.93,1.68-2.82,1.65-3.42,3.94-1.77,6.79Q18.85,40.69,25.51,52.2L30.62,61,41.69,80.22l.08.13A8.61,8.61,0,0,1,46,75.49a1.86,1.86,0,0,0,.2-.81c0-.79,0-1.61,0-2.4s0-1.34,0-2c.14-5.53,3.1-9.15,8.56-10.48q-.24-.48-.48-.9L35.16,25.69C32.53,21.14,28.43,18.72,24,18.72ZM46,75.51Z"/><path class="cls-1" d="M91.56,75.78h-14v-.11H66.9l-13.16.08-2.63,0A2.67,2.67,0,0,1,49,75.09a2.37,2.37,0,0,1-.52-1.9c0-.62.06-1.25.07-1.87s0-1.24.07-1.86c.36-4.58,3.48-7.55,8-7.56,18.24-.07,33.2,0,47.07,0a8.78,8.78,0,0,1,4.58,1.6c3.27,2.22,3.56,5.74,3.38,9.2a3.43,3.43,0,0,1-2.29,2.59,21.28,21.28,0,0,1-5.1.43C100,75.78,95.78,75.78,91.56,75.78ZM78.87,74.45h6c6.34,0,12.89,0,19.34,0A20,20,0,0,0,109,74a2.3,2.3,0,0,0,1.29-1.37c.18-3.55-.23-6.28-2.8-8a7.38,7.38,0,0,0-3.84-1.38c-13.87-.09-28.83-.1-47.07,0-3.78,0-6.32,2.44-6.63,6.34,0,.59,0,1.19-.06,1.78s0,1.3-.08,2a1.2,1.2,0,0,0,.17.89,1.53,1.53,0,0,0,1.09.26l2.63,0,13.16-.08h12Z"/><path class="cls-1" d="M125.81,129.43H114.08l.2-.82c.86-3.58.54-7.22.24-10.74a48.94,48.94,0,0,1-.28-7.28l0-.43.4-.15.08,0a1.38,1.38,0,0,1,.62-.18h3.85c4.41,0,9,0,13.46.06a5.12,5.12,0,0,1,3.42,1.6,14.65,14.65,0,0,1,3.35,14,5,5,0,0,1-5.08,3.94C131.52,129.43,128.65,129.43,125.81,129.43Zm-10.06-1.33h4.57c4.6,0,9.34,0,14,0a3.67,3.67,0,0,0,3.81-2.94,13.43,13.43,0,0,0-3.06-12.83,3.9,3.9,0,0,0-2.46-1.16c-4.47-.09-9-.07-13.42-.05h-3.69a52.53,52.53,0,0,0,.3,6.64A36.67,36.67,0,0,1,115.75,128.1Z"/><path class="cls-1" d="M128.74,109H114l-1.46-24.45h3c5.66,0,8,1.88,9.3,7.46l.64,2.75c.36,1.57.73,3.14,1.09,4.71.45,2,.91,4,1.37,6Zm-13.49-1.33h11.83l-.44-1.91-1.36-6c-.36-1.57-.73-3.14-1.09-4.7l-.65-2.76c-1.14-4.93-3-6.43-8-6.43H114Z"/><path class="cls-1" d="M52,50.46,49.44,46c-3.22-5.57-6.54-11.34-9.76-17A2.5,2.5,0,0,1,40,26.39a5.71,5.71,0,0,1,4.59-1.67,4.41,4.41,0,0,1,3.17,2.21c2.87,4.8,5.82,9.91,9,15.62a4.41,4.41,0,0,1-1.66,6.14c-.52.34-1,.64-1.62,1l-.84.48ZM43.91,26a4.63,4.63,0,0,0-3.06,1.36,1.54,1.54,0,0,0,0,.95c3.21,5.67,6.53,11.43,9.75,17l1.93,3.34.28-.15c.55-.31,1.07-.6,1.55-.92a3.13,3.13,0,0,0,1.22-4.39c-3.19-5.69-6.14-10.79-9-15.58A3.09,3.09,0,0,0,44.35,26,3.25,3.25,0,0,0,43.91,26Z"/><path class="cls-1" d="M53,129.44H50.62c-2.9,0-5-.91-6.21-2.55S43.12,123,44,120.23c1.19-3.55,2.44-7.13,3.65-10.6l.76-2.21a4.64,4.64,0,0,1,.4-.76c.08-.12.17-.27.27-.44l.72-1.27,8.48,24.48H53Zm-3.45-21.21-.64,1.83c-1.21,3.47-2.46,7-3.65,10.59-.77,2.3-.7,4.19.2,5.46s2.69,2,5.14,2c1.44,0,2.89,0,4.43,0h1.39Z"/><path class="cls-1" d="M86.43,61h-6V57.15H78.63c-1.9,0-3.7,0-5.52,0-2.21,0-3.3-1.11-3.32-3.26h0c0-4.25,0-8.51,0-12.66A2.85,2.85,0,0,1,73,38c6.84,0,14,0,21.21,0,2.24,0,3.24,1,3.26,3.28,0,4.11,0,8.31,0,12.49,0,2.25-1.06,3.28-3.4,3.34-1.13,0-2.27,0-3.38,0H89.23a5.29,5.29,0,0,0-2.2.2,5.5,5.5,0,0,0-.3,2.23,2.79,2.79,0,0,1-.14.72c0,.06,0,.11,0,.16Zm-4.62-1.33h3.58s0-.08,0-.11c.15-3.44.44-3.71,3.82-3.71h1.45c1.1,0,2.23,0,3.34,0,1.64,0,2.09-.48,2.1-2,0-4.18,0-8.37,0-12.47,0-1.51-.44-2-1.93-2-7.23,0-14.37,0-21.21,0-1.36,0-1.85.5-1.86,1.87,0,4.14,0,8.4,0,12.64h0c0,1.42.53,1.91,2,1.94,1.8,0,3.59,0,5.48,0h3.19Zm9.74-6.13h-.09c-3.52-.05-7.37-.05-11.76,0A2.35,2.35,0,0,1,77.94,53a2.13,2.13,0,0,1-.52-1.64c.07-2.73.06-5.17,0-7.46A2.22,2.22,0,0,1,78,42.14a2.46,2.46,0,0,1,1.87-.54c1.39,0,2.82,0,4.2,0h1.66l1.67,0c1.26,0,2.56,0,3.83,0a2.67,2.67,0,0,1,2,.56,2.47,2.47,0,0,1,.58,1.92c-.07,2-.07,4.22,0,7.1A2.43,2.43,0,0,1,93.25,53,2.31,2.31,0,0,1,91.55,53.52Zm-5.88-1.37c2,0,4,0,5.81,0A1.19,1.19,0,0,0,92.3,52a1.23,1.23,0,0,0,.17-.83c-.06-2.89-.06-5.11,0-7.17a1.45,1.45,0,0,0-.19-.92,1.48,1.48,0,0,0-1-.18c-1.3.06-2.63,0-3.9,0H84c-1.39,0-2.84,0-4.26,0-.59,0-.81.07-.89.15a1.18,1.18,0,0,0-.15.75h0c.07,2.31.07,4.77,0,7.53a1,1,0,0,0,.13.67c.07.08.27.16.81.16C81.8,52.17,83.78,52.15,85.67,52.15Zm-11,1.23a2.08,2.08,0,0,1-.88-4,2.07,2.07,0,0,1,0-3.76,2.08,2.08,0,1,1,1.75,0,2.07,2.07,0,0,1,0,3.76,2.08,2.08,0,0,1-.87,4Zm0-2.82a.75.75,0,0,0,0,1.5.75.75,0,0,0,0-1.5Zm0-3.77a.75.75,0,1,0,.75.75A.75.75,0,0,0,74.64,46.79Zm0-3.76a.75.75,0,0,0,0,1.5.75.75,0,0,0,0-1.5Z"/></svg>