<svg id="Layer_1" data-name="Layer 1" xmlns="http://www.w3.org/2000/svg" xmlns:xlink="http://www.w3.org/1999/xlink" viewBox="0 0 150 150"><defs><style>.cls-1{fill:none;}.cls-2{clip-path:url(#clip-path);}.cls-3{fill:#333;}.cls-4{fill:gray;}.cls-5{opacity:0.9;}.cls-6{opacity:0.8;}.cls-7{opacity:0.7;}.cls-8{opacity:0.6;}.cls-9{opacity:0.5;}.cls-10{opacity:0.4;}.cls-11{opacity:0.3;}</style><clipPath id="clip-path"><rect class="cls-1" y="-7.83" width="150" height="143.69" rx="12" ry="12"/></clipPath></defs><title>ICON DUNG CU THE THAO</title><g class="cls-2"><path class="cls-3" d="M37.16,48H35.81V24.59a4.74,4.74,0,0,1,4.74-4.73H53.29v1.35H40.55a3.39,3.39,0,0,0-3.39,3.38Z"/><path class="cls-3" d="M114.14,48h-1.35V24.59a3.39,3.39,0,0,0-3.38-3.38H96.67V19.86h12.74a4.73,4.73,0,0,1,4.73,4.73Z"/><rect class="cls-3" x="35.81" y="51.67" width="1.35" height="75.75"/><rect class="cls-3" x="112.79" y="51.67" width="1.35" height="75.75"/><rect class="cls-3" x="69.28" y="23.94" width="0.34" height="24"/><rect class="cls-3" x="80.34" y="23.94" width="0.34" height="24"/><rect class="cls-3" x="69.28" y="51.67" width="0.34" height="75.75"/><rect class="cls-3" x="80.34" y="51.67" width="0.34" height="75.75"/><path class="cls-3" d="M119.93,145.16H30a5.75,5.75,0,0,1-5.74-5.74v-6.77A5.75,5.75,0,0,1,30,126.91h89.91a5.75,5.75,0,0,1,5.74,5.74v6.77A5.75,5.75,0,0,1,119.93,145.16ZM30,127.93a4.73,4.73,0,0,0-4.72,4.72v6.77A4.73,4.73,0,0,0,30,144.14h89.91a4.74,4.74,0,0,0,4.73-4.72v-6.77a4.74,4.74,0,0,0-4.73-4.72Z"/><path class="cls-3" d="M132.18,63.82h0a1.92,1.92,0,0,1-1.41-.62L120.28,52H29.68L19.18,63.2a1.92,1.92,0,0,1-1.41.62,1.94,1.94,0,0,1-1.42-.62l-.13-.14a2.19,2.19,0,0,1,0-3l11-11.75a2,2,0,0,1,.89-.54v-.2h93.71v.2a2,2,0,0,1,.89.54l11,11.75a2.19,2.19,0,0,1,0,3l-.13.14A1.94,1.94,0,0,1,132.18,63.82ZM29.38,51.34h91.19l10.69,11.4a1.28,1.28,0,0,0,.92.41h0a1.29,1.29,0,0,0,.93-.41l.13-.15a1.49,1.49,0,0,0,0-2l-11-11.74a1.31,1.31,0,0,0-.78-.4l-.29,0v-.11H28.79v.11l-.29,0a1.26,1.26,0,0,0-.77.4l-11,11.74a1.52,1.52,0,0,0,0,2l.13.15a1.29,1.29,0,0,0,1.85,0Z"/><rect class="cls-4" x="57.75" y="106.11" width="34.02" height="1.81"/><path class="cls-3" d="M91.94,108.09H57.58v-2.15H91.94Zm-34-.34H91.61v-1.47H57.92Z"/><g class="cls-5"><rect class="cls-4" x="57.75" y="108.83" width="34.02" height="1.81"/><path class="cls-3" d="M91.94,110.81H57.58v-2.15H91.94Zm-34-.34H91.61V109H57.92Z"/></g><g class="cls-6"><rect class="cls-4" x="57.75" y="111.55" width="34.02" height="1.81"/><path class="cls-3" d="M91.94,113.53H57.58v-2.15H91.94Zm-34-.34H91.61v-1.47H57.92Z"/></g><g class="cls-7"><rect class="cls-4" x="57.75" y="114.27" width="34.02" height="1.81"/><path class="cls-3" d="M91.94,116.25H57.58V114.1H91.94Zm-34-.33H91.61v-1.48H57.92Z"/></g><g class="cls-8"><rect class="cls-4" x="57.75" y="116.99" width="34.02" height="1.81"/><path class="cls-3" d="M91.94,119H57.58v-2.15H91.94Zm-34-.33H91.61v-1.48H57.92Z"/></g><g class="cls-9"><rect class="cls-4" x="57.75" y="119.71" width="34.02" height="1.81"/><path class="cls-3" d="M91.94,121.69H57.58v-2.15H91.94Zm-34-.33H91.61v-1.48H57.92Z"/></g><g class="cls-10"><rect class="cls-4" x="57.75" y="122.43" width="34.02" height="1.81"/><path class="cls-3" d="M91.94,124.42H57.58v-2.16H91.94Zm-34-.34H91.61V122.6H57.92Z"/></g><g class="cls-11"><rect class="cls-4" x="57.75" y="125.15" width="34.02" height="1.81"/><path class="cls-3" d="M91.94,127.14H57.58V125H91.94Zm-34-.34H91.61v-1.48H57.92Z"/></g><path class="cls-3" d="M81.23,127.42h-1V102.88h9.53a.69.69,0,0,0,.68-.67v-4a.67.67,0,0,0-.68-.67h-30a.67.67,0,0,0-.67.67v4a.68.68,0,0,0,.67.67H70.17v24.54h-1V103.9H59.78a1.69,1.69,0,0,1-1.69-1.69v-4a1.69,1.69,0,0,1,1.69-1.69h30a1.69,1.69,0,0,1,1.69,1.69v4a1.69,1.69,0,0,1-1.69,1.69H81.23Z"/><path class="cls-3" d="M95.62,24.45H54.33a1.55,1.55,0,0,1-1.55-1.55V17.32a1.54,1.54,0,0,1,1.55-1.55H95.62a1.54,1.54,0,0,1,1.55,1.55V22.9A1.55,1.55,0,0,1,95.62,24.45ZM54.33,16.78a.54.54,0,0,0-.54.54V22.9a.54.54,0,0,0,.54.53H95.62a.54.54,0,0,0,.54-.53V17.32a.54.54,0,0,0-.54-.54Z"/></g></svg>