<svg id="Layer_1" data-name="Layer 1" xmlns="http://www.w3.org/2000/svg" viewBox="0 0 150 150"><defs><style>.cls-1{fill:#333;}</style></defs><title>ICON DUNG CU THE THAO</title><path class="cls-1" d="M18.69,132c-3.68,0-6.32-1.54-7.83-4.58a8,8,0,0,1,.25-7.67,8.25,8.25,0,0,1,6.77-4c.42,0,.85,0,1.26,0h100.7V74H99.62a3.28,3.28,0,0,1-3.43-2.81,3.34,3.34,0,0,1,.75-2.67,3.46,3.46,0,0,1,2.65-1.14h19.27c.46,0,1-.12,1-.68a.57.57,0,0,0-.16-.43,1.2,1.2,0,0,0-.85-.27h-12v-.49c0-.46,0-.9,0-1.35a28.29,28.29,0,0,1,.07-3.33,2.91,2.91,0,0,1,1.37-1.9c7.42-4.34,15-8.71,22.15-12.82a2.75,2.75,0,0,1,4,1.06c1.85,3.15,3.52,6,5.13,8.88a2.78,2.78,0,0,1-1.08,4c-2,1.2-4.09,2.38-6.08,3.5a.57.57,0,0,0-.37.61q0,20.4,0,40.79v10.5c0,.08,0,.15,0,.23l.48.07a8.14,8.14,0,0,1-.22,16.19c-.34,0-.71,0-1.13,0H100.77q-41,0-82.07,0Zm.11-15.33h-.88a7.3,7.3,0,0,0-6,3.56,7,7,0,0,0-.22,6.74c1.36,2.72,3.63,4,7,4h112.5c.39,0,.73,0,1,0a7.08,7.08,0,0,0,6.53-7,7.15,7.15,0,0,0-6.33-7.22l-.62-.08-.68-.1,0-.4c0-.09,0-.17,0-.25s0-.3,0-.44v-10.5q0-20.39,0-40.79a1.53,1.53,0,0,1,.87-1.47c2-1.11,4-2.29,6.06-3.49a1.78,1.78,0,0,0,.73-2.62c-1.61-2.83-3.28-5.73-5.12-8.88A1.8,1.8,0,0,0,131,47c-7.13,4.11-14.72,8.48-22.13,12.82a2,2,0,0,0-.89,1.15,26.2,26.2,0,0,0-.07,3.21c0,.29,0,.58,0,.88h11a2.14,2.14,0,0,1,1.55.55,1.59,1.59,0,0,1,.44,1.13c0,1-.79,1.66-2,1.66H99.6a2.48,2.48,0,0,0-1.92.81,2.37,2.37,0,0,0-.52,1.89,2.3,2.3,0,0,0,2.46,2h21.2v43.59H18.8Zm.08,13.21a7,7,0,0,1-4-1,6,6,0,0,1,2.58-11,10.1,10.1,0,0,1,1.31-.06H131c3.34,0,5.68,1.67,6.43,4.57a6,6,0,0,1-.88,4.87,5.91,5.91,0,0,1-4.2,2.55,11.84,11.84,0,0,1-1.55.08H18.88Zm74.71-11.08H18.76a9.88,9.88,0,0,0-1.19,0A5,5,0,0,0,15.42,128a6,6,0,0,0,3.46.84h0q23.11,0,46.25,0H130.8a11.8,11.8,0,0,0,1.44-.06,5,5,0,0,0,4.24-6.2c-.63-2.44-2.62-3.83-5.48-3.83Z"/><path class="cls-1" d="M58.59,103a4.7,4.7,0,0,1-3.67-1.7,4.89,4.89,0,0,1-.78-4.67,9.43,9.43,0,0,1,1.09-2.1l7.84-11.69,2.8-4.15.24-.36L54.58,75.15,53,74.7l-3.44-1a7.13,7.13,0,0,1-5.26-9.55,12.17,12.17,0,0,1,.84-2.09Q48.22,56,51.34,49.84l2.12-4.16c0-.11.1-.21.16-.32l-.84-.11-3.24-.44-1.67-.22c-1.8-.25-3.67-.5-5.51-.71a2.85,2.85,0,0,0-1.35.18c-1.82.79-3.67,1.61-5.45,2.4-2.31,1-4.7,2.08-7.06,3.09a7.78,7.78,0,0,1-2.92.61,3.6,3.6,0,0,1-3.39-2.26,3.74,3.74,0,0,1,.49-4.12,6,6,0,0,1,1.79-1.5l.36-.19C29.48,39.6,34.29,37,39.09,34.6a7.31,7.31,0,0,1,3.62-.68c8.6.53,15.76,1,22.54,1.62a12.12,12.12,0,0,1,8.62,4.66,8.3,8.3,0,0,1,.29,10.27c-.88,1.29-1.9,2.5-2.89,3.68l-1,1.23q-2.3,2.81-4.6,5.59l-2.35,2.84,0,0,1.32.48,4.36,1.58,2.21.81c1.71.63,3.48,1.28,5.23,1.88a6.24,6.24,0,0,1,4.31,4.06,7,7,0,0,1-1.21,6.1c-4.81,6.45-9.73,13-14.49,19.32l-1.92,2.55A5.55,5.55,0,0,1,59.21,103,4.4,4.4,0,0,1,58.59,103ZM42,42.88a3.25,3.25,0,0,1,.44,0c1.85.21,3.72.46,5.53.7l1.67.23,3.25.43,2.17.3-.47,1c-.11.22-.19.4-.29.58l-2.12,4.17Q49.09,56.41,46,62.53a11.4,11.4,0,0,0-.78,1.92,6.16,6.16,0,0,0,4.59,8.34c1.14.33,2.28.64,3.43,1l1.62.45,12.8,3.58-.58.91-.38.58-2.8,4.16c-2.58,3.83-5.24,7.79-7.84,11.69a7.71,7.71,0,0,0-1,1.87,3.85,3.85,0,0,0,.61,3.73A3.74,3.74,0,0,0,59.09,102a4.58,4.58,0,0,0,3.19-2l1.91-2.55c4.76-6.33,9.68-12.87,14.5-19.32A6,6,0,0,0,79.75,73a5.44,5.44,0,0,0-3.7-3.43c-1.76-.6-3.53-1.25-5.25-1.88l-2.2-.8-4.36-1.58-2.57-.94.57-.76.3-.38,2.35-2.85c1.53-1.86,3.06-3.71,4.59-5.58.34-.42.69-.83,1-1.25,1-1.15,2-2.35,2.83-3.6a7.34,7.34,0,0,0-.25-9.09,11,11,0,0,0-7.93-4.3C58.4,36,51.24,35.43,42.65,34.9a6.27,6.27,0,0,0-3.12.58c-4.79,2.41-9.59,5-14.24,7.47l-.35.19a5,5,0,0,0-1.5,1.26,2.74,2.74,0,0,0-.36,3.08,2.65,2.65,0,0,0,2.47,1.69h0a6.68,6.68,0,0,0,2.55-.52c2.35-1,4.73-2.06,7-3.09l5.46-2.4A3.58,3.58,0,0,1,42,42.88Z"/><path class="cls-1" d="M22.65,114.83l-.4,0a4.68,4.68,0,0,1-4-6.71,8.13,8.13,0,0,1,1.52-2.16q4-4.16,8.06-8.3L36,89.25a3.76,3.76,0,0,0,.84-1.41c1.26-4,2.51-8.18,3.73-12.17l1.19-3.91c0-.16.1-.31.17-.52l.52-1.53.52,1.1C44,73,45.74,74.28,48.6,75c1.18.31,2.33.63,3.55,1l1.63.45.52.15L53,80l-2.64,6.77c-.19.48-.38,1-.58,1.44-.39,1-.79,2-1.14,3a10.82,10.82,0,0,1-3.14,4.61c-3.43,3.09-6.88,6.29-10.22,9.38l-3.88,3.6L30,110.06l-3.34,3.07A5.84,5.84,0,0,1,22.65,114.83Zm20-42.6L41.52,76C40.3,80,39,84.08,37.78,88.14a4.73,4.73,0,0,1-1.06,1.79c-2.71,2.81-5.43,5.6-8.15,8.4s-5.37,5.52-8,8.29a7.17,7.17,0,0,0-1.34,1.89,3.7,3.7,0,0,0,3.15,5.32A4.71,4.71,0,0,0,26,112.4c1.12-1,2.22-2,3.33-3.06L30.74,108l3.88-3.6C38,101.3,41.4,98.1,44.85,95a9.91,9.91,0,0,0,2.86-4.2c.36-1,.77-2,1.16-3,.19-.47.39-1,.57-1.42.88-2.25,1.76-4.5,2.64-6.77L53,77.26,51.89,77c-1.22-.34-2.36-.67-3.54-1A9.24,9.24,0,0,1,42.65,72.23Z"/><path class="cls-1" d="M78,37.7A10.31,10.31,0,0,1,67.73,27.39,10.33,10.33,0,0,1,78,17.07h0A10.32,10.32,0,0,1,78,37.7h0Zm0-19.64h0A9.33,9.33,0,0,0,71.45,34,9.23,9.23,0,0,0,78,36.72h0a9.24,9.24,0,0,0,9.34-9.29,9.34,9.34,0,0,0-2.74-6.66A9.24,9.24,0,0,0,78.06,18.06Z"/><path class="cls-1" d="M84.5,61.87a5.4,5.4,0,0,1-1.85-.35A5.48,5.48,0,0,1,81,60.66c-1.89-1.56-3.73-3.11-5.68-4.75L73.05,54l.34-.38c2.06-2.3,4.09-5.22,3.62-9.39l-.15-1.35,8.46,8.19,7.6-4.6,1-.61a26,26,0,0,1,2.36-1.37A6.72,6.72,0,0,1,99,43.7a3.89,3.89,0,0,1,3.53,5.76,6,6,0,0,1-1.73,1.94c-4.23,3-8.55,6.05-12.74,9l-.88.62A4.54,4.54,0,0,1,84.5,61.87Zm-10-8L76,55.16c2,1.64,3.78,3.18,5.68,4.74a4.4,4.4,0,0,0,1.31.7,3.75,3.75,0,0,0,3.6-.4l.89-.62c4.18-2.93,8.5-6,12.72-9a4.86,4.86,0,0,0,1.44-1.6,2.93,2.93,0,0,0-.07-3A2.9,2.9,0,0,0,99,44.68a5.76,5.76,0,0,0-2.32.67c-.77.38-1.53.86-2.27,1.32l-1,.62-8.25,5-7.11-6.89C78.08,49,76.32,51.71,74.46,53.87Z"/><path class="cls-1" d="M41.24,127.82a4.16,4.16,0,0,1-4-2,4,4,0,0,1,2.67-5.86,7.12,7.12,0,0,1,1.42-.11h67.13a7.18,7.18,0,0,1,1.87.22,4,4,0,0,1-.62,7.72,9.18,9.18,0,0,1-1.24.07H41.24Zm24.3-7H41.31a6.55,6.55,0,0,0-1.23.09,3,3,0,0,0-2,4.41,3.22,3.22,0,0,0,3.16,1.56h67.21a8.33,8.33,0,0,0,1.09-.06A3,3,0,0,0,110,121a5.92,5.92,0,0,0-1.58-.17H65.54Z"/><path class="cls-1" d="M18.15,127.81a4,4,0,0,1,0-8h0a4,4,0,0,1,4,4h0a4,4,0,0,1-3.95,4Zm0-7a3,3,0,0,0-3,3.07,3.07,3.07,0,0,0,3,3,3,3,0,0,0,3-3h0a3,3,0,0,0-3-3Z"/><path class="cls-1" d="M131.6,127.81h0a4,4,0,0,1,0-8,4,4,0,0,1,4,4h0a4,4,0,0,1-1.16,2.89A3.92,3.92,0,0,1,131.6,127.81Zm0-7h0a3,3,0,0,0,0,6h0a3,3,0,0,0,2.12-.88,3,3,0,0,0,.88-2.19h0a3,3,0,0,0-.91-2.13A3,3,0,0,0,131.61,120.78Z"/><path class="cls-1" d="M26.52,127.81A4,4,0,0,1,23.69,121a4,4,0,0,1,6.8,2.85,4,4,0,0,1-4,4Zm0-7a3,3,0,0,0,0,6h0a3,3,0,0,0,0-6Z"/><path class="cls-1" d="M123.24,127.81a4,4,0,0,1-4-4,4.06,4.06,0,0,1,4-4,4,4,0,0,1,0,8Zm0-7a3,3,0,0,0-2.1,5.17,2.94,2.94,0,0,0,2.15.88,3,3,0,0,0,0-6Z"/></svg>