<svg id="Layer_1" data-name="Layer 1" xmlns="http://www.w3.org/2000/svg" viewBox="0 0 150 150"><defs><style>.cls-1{fill:#333;}</style></defs><title>ICON DUNG CU THE THAO</title><path class="cls-1" d="M25.86,124.76l-1,0c-4.78-.31-9.4-3-11.49-6.65-1.82-3.19-1.53-6.67.85-10.36,2.92-4.53,6.15-8.79,8.92-12.37l1.49-1.9c4.13-5.28,8.41-10.74,10.73-17.23.39-1.09.75-2.24,1.09-3.34.48-1.54,1-3.14,1.59-4.68.79-2,1.67-3.9,2.53-5.79.69-1.53,1.41-3.11,2.07-4.68A4.86,4.86,0,0,0,43,55.39a15.86,15.86,0,0,0-.55-2.5c-.12-.46-.25-.94-.36-1.43-.62-2.75.44-5.12,2.72-6s4.59-.1,6.1,2.32a63.68,63.68,0,0,1,14.42-9,4.16,4.16,0,0,0,1.3-1.53,22.68,22.68,0,0,1,25.92-9.94l.83.27-2.17,7.07Q89,41.83,86.8,49c-1.45,4.74-2.88,9.49-4.34,14.31l-2.23,7.36-.82-.21c-3.24-.83-5.82-2.5-8.78-4.91L69,67.05c-1.55,1.45-3.16,3-4.61,4.52-3.62,3.93-5.67,8.66-7.83,13.67-.51,1.17-1,2.39-1.58,3.58-5.61,12.3-13.39,23.2-19.54,31.31A11.67,11.67,0,0,1,25.86,124.76ZM46.65,46.83a3.32,3.32,0,0,0-1.22.25c-1.47.59-2.08,2.08-1.65,4,.1.45.22.89.35,1.36a20.33,20.33,0,0,1,.6,2.75,6.7,6.7,0,0,1-.41,3.24c-.67,1.59-1.4,3.19-2.09,4.73-.85,1.86-1.73,3.79-2.5,5.72-.59,1.47-1.08,3-1.54,4.54-.35,1.12-.71,2.28-1.12,3.41-2.42,6.75-6.78,12.33-11,17.72l-1.48,1.9c-2.75,3.55-6,7.77-8.84,12.24-2,3.13-2.28,5.92-.8,8.52,1.81,3.17,5.86,5.48,10.07,5.76a10.11,10.11,0,0,0,9-3.9c6.09-8,13.8-18.84,19.33-31,.54-1.18,1.06-2.39,1.57-3.56,2.13-4.92,4.33-10,8.16-14.16,1.49-1.62,3.12-3.15,4.7-4.62q1.08-1,2.16-2l.57-.55.61.51C73.92,66,76.26,67.61,79,68.49l1.73-5.71c1.46-4.82,2.89-9.56,4.34-14.31S88,38.92,89.48,34.15l1.65-5.38a20.92,20.92,0,0,0-23,9.41,5.35,5.35,0,0,1-2.07,2.22,60.27,60.27,0,0,0-14.73,9.32l-.71.63L50,49.6l-.24-.3a3.05,3.05,0,0,1-.32-.44C48.67,47.5,47.74,46.83,46.65,46.83Z"/><path class="cls-1" d="M94.45,82.42a11,11,0,0,1-5.94-1.9c-4.48-2.85-6-7-4.4-12.27C87.41,57,91,45.45,94.62,33.8A16.62,16.62,0,0,1,98,27.24a10.31,10.31,0,0,1,9.61-3,11,11,0,0,1,8.06,7,2,2,0,0,0,1.58,1.43,19,19,0,0,1,3.14,1.12,6.65,6.65,0,0,1-4.36,12.45c-.68-.15-1.32-.33-2.07-.55l-.3-.09-1.33,4.35c.53.18,1,.35,1.52.5a6.73,6.73,0,0,1,4.81,8,6.45,6.45,0,0,1-7.69,5,21.3,21.3,0,0,1-2.24-.53l-.31-.08-1.32,4.29.39.14a24.59,24.59,0,0,1,2.36.92c3.43,1.64,4.6,5.06,3.06,8.92a6.42,6.42,0,0,1-8,3.45l-.73-.26a5.87,5.87,0,0,0-1.39-.39,3.14,3.14,0,0,0-1.75.23A11.55,11.55,0,0,1,94.45,82.42Zm11.08-56.64a8.64,8.64,0,0,0-6.23,2.7,15.15,15.15,0,0,0-3,5.85C92.65,46,89.11,57.55,85.81,68.76c-1.32,4.49-.13,7.85,3.65,10.26,3.62,2.31,6.89,2.19,10.6-.39a4.57,4.57,0,0,1,2.9-.54,6.76,6.76,0,0,1,1.88.5l.65.23a4.69,4.69,0,0,0,5.8-2.42c1.2-3,.4-5.42-2.18-6.65a21.09,21.09,0,0,0-2.18-.85l-1.21-.44-.78-.29,2.31-7.53.82.21,1.16.31c.75.2,1.4.38,2,.49A4.75,4.75,0,0,0,117,58a4.94,4.94,0,0,0-3.59-5.93c-.52-.16-1-.33-1.59-.52l-.81-.27-.82-.27,2.35-7.67.83.23,1.16.33c.71.21,1.33.39,2,.53a4.88,4.88,0,0,0,3.22-9.12,17.39,17.39,0,0,0-2.85-1A3.78,3.78,0,0,1,114,31.83,9.27,9.27,0,0,0,107.29,26,8.84,8.84,0,0,0,105.53,25.78Z"/><path class="cls-1" d="M118.89,82.13a3.8,3.8,0,0,1-1.54-.35c-1.38-.6-1.77-1.82-1.16-3.63.78-2.32,2.54-3.54,4.27-4.6,2.28-1.38,2.4-1.84,1.08-4a7.85,7.85,0,0,1,2.63-10.7c.28-.17.56-.31.83-.45s.46-.23.66-.35c1.46-.87,1.67-1.54,1-3.13-.12-.27-.24-.54-.37-.81A10.34,10.34,0,0,1,125.2,51c-.43-3.21.91-5.82,4-7.75a9.64,9.64,0,0,0,1.55-1.37,13.92,13.92,0,0,1,1.49-1.36,4.4,4.4,0,0,1,2.93-1,2.85,2.85,0,0,1,1.68,1.34,8,8,0,0,0,.6.71l.49.53-.41.59c-.29.41-.55.81-.8,1.2a19.78,19.78,0,0,1-1.84,2.51,6.93,6.93,0,0,1-1.92,1.34l-.63.35c-1.74,1-1.91,1.59-1,3.3,1,1.94,1.9,4.08,1.25,6.55a8.13,8.13,0,0,1-4.46,5.24c-1.23.64-1.84,1.15-2,1.64s.11,1.22.77,2.35a8,8,0,0,1,.93,6.33,8.78,8.78,0,0,1-4.62,5.26,4.75,4.75,0,0,0-1.67,1.74A3,3,0,0,1,118.89,82.13ZM134.75,41.3a2.87,2.87,0,0,0-1.48.63A10.77,10.77,0,0,0,132,43.11a11.28,11.28,0,0,1-1.87,1.62c-2.45,1.55-3.48,3.52-3.15,6a9.12,9.12,0,0,0,.92,2.56l.39.85c1,2.4.52,4.05-1.7,5.37-.26.15-.52.28-.77.41s-.49.25-.71.38a6.05,6.05,0,0,0-2,8.27c1.83,3.07,1.43,4.58-1.69,6.48-1.51.92-2.92,1.89-3.51,3.64-.39,1.19-.12,1.31.2,1.45A1.32,1.32,0,0,0,120,79.6a6.68,6.68,0,0,1,2.39-2.39A7,7,0,0,0,126.11,73a6.19,6.19,0,0,0-.74-4.94c-.68-1.14-1.32-2.48-1-3.74s1.59-2.06,2.87-2.73a6.35,6.35,0,0,0,3.56-4.11c.47-1.78-.07-3.33-1.1-5.26-1.36-2.56-.9-4.14,1.65-5.66l.69-.39a5.48,5.48,0,0,0,1.45-1,16.76,16.76,0,0,0,1.67-2.29l.44-.67c-.08-.1-.15-.2-.23-.29a4.41,4.41,0,0,0-.59-.68Z"/></svg>