<svg id="Layer_1" data-name="Layer 1" xmlns="http://www.w3.org/2000/svg" viewBox="0 0 150 150"><defs><style>.cls-1{fill:#333;}</style></defs><title>ICON DUNG CU THE THAO</title><path class="cls-1" d="M83.82,119.77H82.08V23a4.17,4.17,0,0,0-1.66-3.22,6.6,6.6,0,0,0-4.2-1.42c-3.24,0-5.87,2.08-5.87,4.64v96.8H68.61V23c0-3.52,3.42-6.38,7.61-6.38a8.35,8.35,0,0,1,5.3,1.81A5.88,5.88,0,0,1,83.82,23Z"/><path class="cls-1" d="M76.22,55.47a98.55,98.55,0,0,1-12.06-.72c-15.24-1.87-25.09-7-25.09-13s9.85-11.09,25.09-13a.87.87,0,0,1,.22,1.73c-13.88,1.7-23.57,6.33-23.57,11.24S50.5,51.32,64.38,53a97,97,0,0,0,11.84.7A97.09,97.09,0,0,0,88.06,53c13.87-1.71,23.56-6.33,23.56-11.24s-9.69-9.54-23.56-11.24a.87.87,0,0,1,.21-1.73c15.24,1.88,25.09,7,25.09,13s-9.85,11.09-25.09,13A98.51,98.51,0,0,1,76.22,55.47Z"/><rect class="cls-1" x="39.54" y="39.62" width="30.77" height="1.74" transform="translate(-7.72 13.45) rotate(-13.05)"/><rect class="cls-1" x="97.07" y="25.1" width="1.74" height="30.77" transform="translate(36.38 126.75) rotate(-76.94)"/><path class="cls-1" d="M36.47,124.87a12.28,12.28,0,0,1-1.88-.12.87.87,0,1,1,.28-1.71,15.87,15.87,0,0,0,5.73-.42c2.51-.63,3.46-1.69,6.63-5.21.83-.93,1.78-2,2.94-3.23l1.45-1.56c4.7-5.08,6.84-7.4,9.33-8.23,2.71-.9,7.88-.91,8.1-.91a.87.87,0,1,1,0,1.73s-5.1,0-7.55.83c-2.06.69-4.12,2.9-8.61,7.76l-1.45,1.56c-1.15,1.24-2.09,2.29-2.92,3.21-3.26,3.62-4.48,5-7.5,5.73A18.65,18.65,0,0,1,36.47,124.87Z"/><path class="cls-1" d="M33.86,130.84A.86.86,0,0,1,33,130V118.25a.87.87,0,1,1,1.74,0V130A.86.86,0,0,1,33.86,130.84Z"/><path class="cls-1" d="M33.86,133.41c-4.1,0-8.25-1.18-8.25-3.43s4.15-3.44,8.25-3.44,8.25,1.18,8.25,3.44S38,133.41,33.86,133.41Zm0-5.56c-4.24,0-6.95,1.26-6.95,2.13s2.71,2.13,7,2.13,7-1.27,7-2.13S38.1,127.85,33.86,127.85Z"/><ellipse class="cls-1" cx="33.86" cy="117.38" rx="10.86" ry="3.97"/><path class="cls-1" d="M115.53,124.87a18.65,18.65,0,0,1-4.55-.57c-3-.75-4.24-2.11-7.5-5.73-.83-.92-1.77-2-2.92-3.21l-1.45-1.56c-4.49-4.86-6.55-7.07-8.61-7.76-2.45-.82-7.5-.83-7.55-.83a.87.87,0,1,1,0-1.73c.22,0,5.39,0,8.1.91,2.49.83,4.63,3.15,9.33,8.23l1.45,1.56c1.16,1.25,2.11,2.3,2.94,3.23,3.17,3.52,4.12,4.58,6.63,5.21a15.87,15.87,0,0,0,5.73.42.87.87,0,1,1,.28,1.71A12.28,12.28,0,0,1,115.53,124.87Z"/><path class="cls-1" d="M118.14,130.84a.86.86,0,0,1-.87-.86V118.25a.87.87,0,0,1,1.74,0V130A.86.86,0,0,1,118.14,130.84Z"/><path class="cls-1" d="M118.14,133.41c-4.1,0-8.25-1.18-8.25-3.43s4.15-3.44,8.25-3.44,8.25,1.18,8.25,3.44S122.24,133.41,118.14,133.41Zm0-5.56c-4.24,0-7,1.26-7,2.13s2.71,2.13,7,2.13,7-1.27,7-2.13S122.38,127.85,118.14,127.85Z"/><ellipse class="cls-1" cx="118.14" cy="117.38" rx="10.86" ry="3.97"/><path class="cls-1" d="M69.48,80.31v6.36c-2.63-.72-4.34-1.88-4.34-3.18S66.85,81,69.48,80.31Z"/><path class="cls-1" d="M86.86,83.49c0,1.23-1.52,2.33-3.91,3.06V80.44C85.34,81.17,86.86,82.27,86.86,83.49Z"/></svg>