<svg id="Layer_1" data-name="Layer 1" xmlns="http://www.w3.org/2000/svg" viewBox="0 0 150 150"><defs><style>.cls-1{fill:#333;}</style></defs><title>ICON DUNG CU THE THAO</title><rect class="cls-1" x="105.16" y="102.52" width="1.69" height="15.53"/><path class="cls-1" d="M56.7,74H55v-37A26,26,0,0,1,80.68,11h.25a26,26,0,0,1,25.92,25.92V57.65h-1.69V36.92A24.31,24.31,0,0,0,80.93,12.69h-.21a24.3,24.3,0,0,0-24,24.22Z"/><rect class="cls-1" x="55.01" y="95.03" width="1.69" height="23.51"/><rect class="cls-1" x="79.84" y="11.6" width="1.69" height="30.48"/><path class="cls-1" d="M96.94,101.27a5.08,5.08,0,0,1-1.61-.27h0L53.13,86.33a4.92,4.92,0,0,1-3-6.25l1.53-4.4a4.92,4.92,0,0,1,6.25-3l42.21,14.67a4.92,4.92,0,0,1,3,6.25L101.58,98A4.92,4.92,0,0,1,96.94,101.27Zm-1-1.87a3.21,3.21,0,0,0,4.09-2l1.53-4.4a3.21,3.21,0,0,0-2-4.09L57.33,74.25a3.23,3.23,0,0,0-4.1,2L51.7,80.63a3.23,3.23,0,0,0,2,4.1L95.89,99.4Z"/><path class="cls-1" d="M101.79,90.33l-1.44-.89,30.47-49.17a5.07,5.07,0,0,0-1.63-7l-.84-.52a5.06,5.06,0,0,0-6.95,1.63L90.09,84.94l-1.44-.89L120,33.53a6.75,6.75,0,0,1,9.28-2.18l.84.52a6.75,6.75,0,0,1,2.18,9.29Z"/><path class="cls-1" d="M92.47,107a59,59,0,0,1-15.29-2.29A121.67,121.67,0,0,1,52.32,94.5a1.2,1.2,0,0,1-.45-1.62,1.18,1.18,0,0,1,1.62-.44c.45.25,44.86,25.21,57.88,2.89,4.18-7.17,7.24-12.38,9.09-15.48l1.59-2.65c.42-.68,1-1.6,2-1s.47,1.63.19,2.13a1.18,1.18,0,0,1-.32.38c-.92,1.49-3.47,5.77-10.51,17.84C109.37,103.46,102.25,107,92.47,107Z"/><polygon class="cls-1" points="93.58 78.72 91.88 78.72 91.88 43.67 69.97 43.67 69.97 77.24 68.28 77.24 68.28 41.98 93.58 41.98 93.58 78.72"/><polygon class="cls-1" points="73.72 137.58 54.23 137.58 78.06 103.39 79.45 104.36 57.48 135.89 72.9 135.89 96.98 105.29 98.31 106.34 73.72 137.58"/><path class="cls-1" d="M38.64,76.61a18.06,18.06,0,1,1,18.06-18A18.07,18.07,0,0,1,38.64,76.61Zm0-34.42A16.37,16.37,0,1,0,55,58.56,16.38,16.38,0,0,0,38.64,42.19Z"/><path class="cls-1" d="M38.64,67a8.47,8.47,0,1,1,8.47-8.46A8.47,8.47,0,0,1,38.64,67Zm0-15.24a6.78,6.78,0,1,0,6.78,6.78A6.78,6.78,0,0,0,38.64,51.78Z"/><rect class="cls-1" x="47" y="57.71" width="8.85" height="1.69"/><path class="cls-1" d="M28.56,131.43A13.63,13.63,0,1,1,42.19,117.8,13.65,13.65,0,0,1,28.56,131.43Zm0-25.56A11.94,11.94,0,1,0,40.5,117.8,11.94,11.94,0,0,0,28.56,105.87Z"/><rect class="cls-1" x="13.76" y="84.61" width="39.93" height="1.69" transform="translate(-56.53 102.6) rotate(-79.21)"/><circle class="cls-1" cx="28.32" cy="118.05" r="2.46"/></svg>