<svg id="Layer_1" data-name="Layer 1" xmlns="http://www.w3.org/2000/svg" viewBox="0 0 150 150"><defs><style>.cls-1{fill:#333;}</style></defs><title>ICON DUNG CU THE THAO</title><path class="cls-1" d="M74.55,114c-2.94,0-3.71-2.84-4.15-4.44l-.28-1c-.56-2.07-1.14-4.2-1.8-6.27-3.9-12.26-11.89-19.78-24.45-23-5-1.27-8.08-3.29-9.41-6.16s-.87-6.52,1.4-11.17c5.44-11.13,14-20.18,25.5-26.9,7.06-4.13,11.65-3,15.84,4,6.6,11,16,15.2,28.78,12.91a3.77,3.77,0,0,0,.43-.1,2.1,2.1,0,0,1,1.44,0,29.57,29.57,0,0,1,2.69,1.57l.65.41a.9.9,0,0,1,.29,1.22c-.17.27-.34.59-.5.89-.55,1-1.11,2.08-2,2.37-7,2.19-13.08,2.9-18.7,2.17a30.8,30.8,0,0,1-17.12-8.13,3.61,3.61,0,0,0-2.81-.85c-8.46,4.29-14.07,9-18.19,15.35,16.9,7.46,25.63,21,26.69,41.35.1,1.91.26,5.11-3.36,5.74A5,5,0,0,1,74.55,114ZM68.47,33.69a13.52,13.52,0,0,0-6.62,2.24c-11.31,6.62-19.76,15.53-25.12,26.5-2.14,4.36-2.59,7.75-1.4,10.34s4.07,4.43,8.78,5.63C56.83,81.64,65.29,89.59,69.24,102c.66,2.09,1.25,4.24,1.81,6.32l.28,1c.74,2.69,1.59,4.07,4,3.66s2.7-1.92,2.56-4.75c-1-20-9.61-33.26-26.2-40.55a.88.88,0,0,1-.39-1.3c4.22-6.51,10-11.37,18.61-15.76,1-.53,3.05.23,3.9,1C83.14,60.12,94.22,62,108.66,57.4c.55-.17,1-1,1.47-1.9.16-.3.32-.6.49-.88l-.6-.37a27.07,27.07,0,0,0-2.59-1.53,2,2,0,0,0-.78.11l-.5.12c-6.49,1.16-12.26.65-17.16-1.52s-9.22-6.19-12.62-11.85C74,35.61,71.53,33.69,68.47,33.69Z"/><path class="cls-1" d="M47.21,136a19.55,19.55,0,0,1-3-.31,17.67,17.67,0,0,0-2.6-.29,3.56,3.56,0,0,1-2.76-1.24,5,5,0,0,1-1-4c.36-2.58,2-3.83,5.08-3.84H72.73c2.92,0,5.85,0,8.78,0,6.6,0,13.42,0,20.13,0,1.76,0,4,.14,5.25,1.44a4.47,4.47,0,0,1,1.14,3.33,4.4,4.4,0,0,1-1.32,3.33c-1.06,1-2.71,1.41-4.88,1.26a18.17,18.17,0,0,0-2.07,0c-2.42.13-5.16.29-6.69-3.11a7.61,7.61,0,0,0-1.87-.13h-.37c-9.79,0-22.7,0-35.74,0-2.08,0-2.46.27-2.53.38A5.69,5.69,0,0,1,47.21,136Zm25.52-8.7H43c-2.56,0-3.83.93-4.13,3a4.06,4.06,0,0,0,.74,3.21,2.64,2.64,0,0,0,2,.9,18.39,18.39,0,0,1,2.74.31c2.81.44,5.45.86,7.33-2.36.41-.71,1.64-.86,3.35-.87,13,0,26,0,35.75,0h.36c1.48,0,2.46,0,2.74.65,1.25,2.84,3.35,2.72,5.78,2.59a17.63,17.63,0,0,1,2.18,0,5.77,5.77,0,0,0,4.17-1,4.2,4.2,0,0,0,.14-5.27c-1-1-3-1.17-4.55-1.15-6.72,0-13.54,0-20.14,0Z"/><path class="cls-1" d="M83.79,36.9A11,11,0,0,1,72.46,25.68,11.29,11.29,0,0,1,83.57,14a11.45,11.45,0,1,1,.36,22.9h-.14Zm0-21.94H83.6a10.33,10.33,0,0,0-10.18,10.7,10.1,10.1,0,0,0,10.5,10.27h0A10.39,10.39,0,0,0,94.41,25.53,10.67,10.67,0,0,0,83.83,15Z"/><path class="cls-1" d="M110.4,51.27a10.16,10.16,0,0,1-2.51-.45c-.38-.1-.77-.21-1.17-.29a.71.71,0,0,1-.53-.51.72.72,0,0,1,.21-.72c.29-.26.57-.53.85-.8a18.23,18.23,0,0,1,2.81-2.36c.91-.58,2.8-1.79,4-.78a3.46,3.46,0,0,1,1,2.75,5.38,5.38,0,0,1-3.77,3.06A3.47,3.47,0,0,1,110.4,51.27Zm-3-1.58.74.19a6.19,6.19,0,0,0,2.89.35,4.43,4.43,0,0,0,3.08-2.41c.14-.44-.47-1.54-.68-1.73-.64-.54-2.24.48-2.84.86a17.71,17.71,0,0,0-2.67,2.25Zm-.46-.1Z"/><path class="cls-1" d="M73.27,125.27c-7.46,0-14.82,0-21.91-.12a11.29,11.29,0,0,1-6.3-20.57c2.43-1.71,2.09-3.9,1.74-6.23-.08-.52-.16-1.06-.21-1.58a13.52,13.52,0,0,0-1.18-3.89,21.25,21.25,0,0,1-1-2.87c-1.12-4.35-2.67-6.69-7.32-5.75-1.2.24-3.47-1.13-3.9-2.37a6.15,6.15,0,0,1,.17-3.39c0-.18.09-.37.13-.54a1.14,1.14,0,0,1,.55-.75,1.16,1.16,0,0,1,.93-.07L49,82.22a1.12,1.12,0,0,1,.75,1A1.1,1.1,0,0,1,49,84.32l-1.39.55a.16.16,0,0,0-.1.1.15.15,0,0,0,0,.13c.63,1.19,1.25,2.37,1.87,3.53C51.16,91.9,52.8,95,54.31,98.2c1,2.23,2.29,2.23,4.67,1.38,1.28-.46,2.56-.82,4-1.24l1.6-.46a1.14,1.14,0,0,1,1.39.75c.32,1,.65,2.07,1,3.11.88,2.78,1.79,5.65,2.59,8.5,1,3.69,3,5.26,6,4.78,3.16-.5,4.67-2.72,4.27-6.25-.37-3.31-.77-6.57-1.19-10-.17-1.35-.33-2.71-.5-4.08a1.15,1.15,0,0,1,.53-1.1A3.19,3.19,0,0,1,80.09,93c8-.53,9.5-6.45,10.4-13,.4-2.9.52-5.83.64-8.67,0-1,.08-2,.13-3a.13.13,0,0,0,0-.12.17.17,0,0,0-.12-.05h0l-2.81,0c-2.94,0-5.71,0-8.49-.1A4.73,4.73,0,0,1,77.46,67l-.31-.23a1.13,1.13,0,0,1-.47-.79,1.16,1.16,0,0,1,.28-.87l.34-.39c.68-.78,1.37-1.59,2.25-1.68,4.81-.51,9.67-.85,14.37-1.18l3.54-.25a1.1,1.1,0,0,1,1,.46,1.12,1.12,0,0,1,.13,1.09c-2.55,6.31-2.3,12.72-2,19.51l.06,1.63c.19,5.12,2.94,6.93,6.76,9.42l.06,0c5.5,3.59,8.13,11.89,6,18.87-2.33,7.57-8.54,12.35-16.22,12.49C86.56,125.23,79.88,125.27,73.27,125.27ZM38.87,83.1c4.11,0,5.54,3.16,6.44,6.67a20.58,20.58,0,0,0,1,2.75,14.33,14.33,0,0,1,1.25,4.17c.05.49.12,1,.2,1.52.37,2.39.78,5.1-2.13,7.16a10.32,10.32,0,0,0,5.75,18.82c13.37.13,27.69.21,41.81,0,7.24-.12,13.11-4.64,15.3-11.8,2-6.6-.42-14.41-5.59-17.79l0,0c-3.76-2.46-7-4.57-7.2-10.2l-.06-1.62c-.27-6.9-.52-13.41,2.11-19.91a.15.15,0,0,0,0-.16.15.15,0,0,0-.14-.07L94,62.82c-4.68.33-9.53.67-14.33,1.17-.5.06-1.07.72-1.62,1.35-.11.14-.23.28-.35.41a.19.19,0,0,0,0,.13.2.2,0,0,0,.07.11l.32.23a4.06,4.06,0,0,0,1.82,1c2.75.14,5.51.12,8.43.09H91.1a1.15,1.15,0,0,1,.82.35,1.17,1.17,0,0,1,.31.84c-.06,1-.1,2-.14,3-.12,2.86-.24,5.82-.65,8.76C90.53,86.84,88.9,93.41,80.15,94a2.37,2.37,0,0,0-1,.42.15.15,0,0,0-.08.16c.16,1.38.33,2.74.49,4.08.42,3.45.82,6.71,1.2,10,.46,4.06-1.39,6.73-5.08,7.31-3.5.56-5.87-1.28-7-5.47-.8-2.83-1.71-5.7-2.59-8.47-.33-1-.66-2.07-1-3.12a.16.16,0,0,0-.2-.1l-1.6.45c-1.47.42-2.74.78-4,1.22-2.15.78-4.38,1.27-5.86-1.87s-3.14-6.27-4.87-9.53c-.62-1.16-1.25-2.34-1.87-3.53a1.14,1.14,0,0,1-.06-.92,1.1,1.1,0,0,1,.65-.65l1.38-.55a.16.16,0,0,0,.11-.16.17.17,0,0,0-.11-.15L34.61,78.05a.11.11,0,0,0-.13,0,.12.12,0,0,0-.08.1c0,.19-.09.37-.13.56a5.6,5.6,0,0,0-.21,2.85,3.69,3.69,0,0,0,2.81,1.74A10.72,10.72,0,0,1,38.87,83.1Z"/><path class="cls-1" d="M54.14,105.19a7.63,7.63,0,0,1,7.62,7.62,7.76,7.76,0,0,1-.46,2.61l-.25.69.72.15h.06l8.73,2.32.43.12.26-.37.89-1.26a.45.45,0,0,1,.33-.1h0l5.51.28a.77.77,0,0,1,.65.35L76.28,121s-.13.1-.33.1h0l-5.51-.28a.74.74,0,0,1-.65-.36l-.09-.37-.37-.1-7.91-2.1a.83.83,0,0,1-.4-.24l-.5-.55-.47.57a7.62,7.62,0,1,1-5.86-12.48m0,14.46a6.84,6.84,0,1,0-6.84-6.84,6.85,6.85,0,0,0,6.84,6.84m0-15.1a8.26,8.26,0,1,0,6.36,13.53,1.4,1.4,0,0,0,.71.43l7.91,2.1a1.29,1.29,0,0,0,1.24.85l5.51.28H76a1,1,0,0,0,.85-.37L79.2,118c.39-.55-.25-1.31-1.14-1.36l-5.51-.28h-.08a1.06,1.06,0,0,0-.86.37L70.72,118,62,115.65H61.9a8.26,8.26,0,0,0-7.76-11.09Zm0,14.45a6.19,6.19,0,1,1,6.19-6.19A6.19,6.19,0,0,1,54.14,119Z"/></svg>